<?xml version="1.0" encoding="utf-8"?>
<!-- Generator: Adobe Illustrator 22.1.0, SVG Export Plug-In . SVG Version: 6.00 Build 0)  -->
<svg version="1.1" xmlns="http://www.w3.org/2000/svg" xmlns:xlink="http://www.w3.org/1999/xlink" x="0px" y="0px"
	 viewBox="0 0 2048 1536" style="enable-background:new 0 0 2048 1536;" xml:space="preserve">
<style type="text/css">
	.st0{fill:url(#SVGID_1_);stroke:#000000;stroke-width:3;stroke-miterlimit:10;}
	.st1{fill:url(#SVGID_2_);stroke:#000000;stroke-width:3;stroke-miterlimit:10;}
	.st2{fill:url(#SVGID_3_);stroke:#000000;stroke-width:3;stroke-miterlimit:10;}
	.st3{fill:url(#SVGID_4_);stroke:#000000;stroke-width:3;stroke-miterlimit:10;}
	.st4{fill:url(#SVGID_5_);stroke:#000000;stroke-width:3;stroke-miterlimit:10;}
	.st5{fill:url(#SVGID_6_);stroke:#000000;stroke-width:3;stroke-miterlimit:10;}
	.st6{fill:url(#SVGID_7_);stroke:#000000;stroke-width:3;stroke-miterlimit:10;}
	.st7{fill:url(#SVGID_8_);stroke:#000000;stroke-width:3;stroke-miterlimit:10;}
	.st8{fill:url(#SVGID_9_);stroke:#000000;stroke-width:3;stroke-miterlimit:10;}
	.st9{fill:url(#SVGID_10_);stroke:#000000;stroke-width:3;stroke-miterlimit:10;}
	.st10{fill:url(#SVGID_11_);stroke:#000000;stroke-width:3;stroke-miterlimit:10;}
	.st11{fill:url(#SVGID_12_);stroke:#000000;stroke-width:3;stroke-miterlimit:10;}
	.st12{fill:#FFFF00;stroke:#000000;stroke-width:2;stroke-miterlimit:10;}
	.st13{stroke:#000000;stroke-width:2;stroke-miterlimit:10;}
	.st14{fill:#FFFFFF;stroke:#000000;stroke-miterlimit:10;}
	.st15{stroke:#000000;stroke-miterlimit:10;}
	.st16{fill:url(#SVGID_13_);stroke:#000000;stroke-miterlimit:10;}
	.st17{fill:url(#SVGID_14_);stroke:#000000;stroke-miterlimit:10;}
    
    .bumblebee{
        animation: fly 2s infinite;
    }
    
    @keyframes fly {
        0% {
        transform: scale(0.8, 0.8)
        }
        50% {
        transform: scale(1.9, 1.5);
        }
        100% {
        transform: scale(0.8, 0.8);
        }
    }

</style>
<g id="flower">
	<g id="_x3C_theflower_x3E_">
		
			<linearGradient id="SVGID_1_" gradientUnits="userSpaceOnUse" x1="1272.7284" y1="860.6564" x2="1334.4058" y2="825.0469" gradientTransform="matrix(1 0 0 -1 0 1536)">
			<stop  offset="0" style="stop-color:#E90082"/>
			<stop  offset="0.2723" style="stop-color:#ED0490"/>
			<stop  offset="0.7819" style="stop-color:#F910B4"/>
			<stop  offset="1" style="stop-color:#FF15C5"/>
		</linearGradient>
		<path class="st0" d="M1273.1,674.7l39.5-40l38.7,45.3c0,0-36.5,32.8-41.9,68.7C1304,784.6,1303.6,713.1,1273.1,674.7z"/>
		
			<linearGradient id="SVGID_2_" gradientUnits="userSpaceOnUse" x1="1452.2958" y1="767.9043" x2="1385.6289" y2="701.2373" gradientTransform="matrix(1 0 0 -1 0 1536)">
			<stop  offset="0" style="stop-color:#E90082"/>
			<stop  offset="0.2723" style="stop-color:#ED0490"/>
			<stop  offset="0.7819" style="stop-color:#F910B4"/>
			<stop  offset="1" style="stop-color:#FF15C5"/>
		</linearGradient>
		<path class="st1" d="M1439.9,755.7l39.6,47.5l-41,47c0,0-37.4-42.4-76.4-47.2C1323,798.1,1403.3,800.1,1439.9,755.7z"/>
		
			<linearGradient id="SVGID_3_" gradientUnits="userSpaceOnUse" x1="1345.9" y1="631.3201" x2="1266.7001" y2="631.3201" gradientTransform="matrix(1 0 0 -1 0 1536)">
			<stop  offset="0" style="stop-color:#E90082"/>
			<stop  offset="0.2723" style="stop-color:#ED0490"/>
			<stop  offset="0.7819" style="stop-color:#F910B4"/>
			<stop  offset="1" style="stop-color:#FF15C5"/>
		</linearGradient>
		<path class="st2" d="M1345.9,926.1l-37,29.9l-42.2-29.3c0,0,29.1-26.6,37.9-64.5C1311.9,830.1,1314.6,893.3,1345.9,926.1z"/>
		
			<linearGradient id="SVGID_4_" gradientUnits="userSpaceOnUse" x1="1259.2343" y1="733.35" x2="1143" y2="733.35" gradientTransform="matrix(1 0 0 -1 0 1536)">
			<stop  offset="0" style="stop-color:#E90082"/>
			<stop  offset="0.2723" style="stop-color:#ED0490"/>
			<stop  offset="0.7819" style="stop-color:#F910B4"/>
			<stop  offset="1" style="stop-color:#FF15C5"/>
		</linearGradient>
		<path class="st3" d="M1174.5,853.6l-31.5-50.2l33.2-51.7c0,0,36.8,36.8,61.9,41.9C1299.7,806.3,1210.6,800.7,1174.5,853.6z"/>
		
			<linearGradient id="SVGID_5_" gradientUnits="userSpaceOnUse" x1="1312.8594" y1="770.6891" x2="1483.379" y2="869.1386" gradientTransform="matrix(1 0 0 -1 0 1536)">
			<stop  offset="0" style="stop-color:#29ABE2"/>
			<stop  offset="0.229" style="stop-color:#28A8E0"/>
			<stop  offset="0.4116" style="stop-color:#249EDB"/>
			<stop  offset="0.5783" style="stop-color:#1E8DD3"/>
			<stop  offset="0.7354" style="stop-color:#1675C7"/>
			<stop  offset="0.8845" style="stop-color:#0B57B8"/>
			<stop  offset="1" style="stop-color:#003AAA"/>
		</linearGradient>
		<path class="st4" d="M1321.6,706.5c0,0,59.8-104.9,154.7-51.9c0,0,25.5,92.3-69.7,131.3l-44.4,15.1c0,0-7.1-56.5-58.7-51.9
			L1321.6,706.5z"/>
		
			<linearGradient id="SVGID_6_" gradientUnits="userSpaceOnUse" x1="1226.0925" y1="734.9" x2="1226.0925" y2="569.1143" gradientTransform="matrix(1 0 0 -1 0 1536)">
			<stop  offset="0" style="stop-color:#29ABE2"/>
			<stop  offset="0.229" style="stop-color:#28A8E0"/>
			<stop  offset="0.4116" style="stop-color:#249EDB"/>
			<stop  offset="0.5783" style="stop-color:#1E8DD3"/>
			<stop  offset="0.7354" style="stop-color:#1675C7"/>
			<stop  offset="0.8845" style="stop-color:#0B57B8"/>
			<stop  offset="1" style="stop-color:#003AAA"/>
		</linearGradient>
		<path class="st5" d="M1298.9,892.3c0,0-51.4,109.1-150.2,63.4c0,0-32.6-90.1,59.3-136.2l43.1-18.4c0,0,9.8,55.3,58,50.8
			L1298.9,892.3z"/>
		
			<linearGradient id="SVGID_7_" gradientUnits="userSpaceOnUse" x1="1307" y1="818.8207" x2="1144.3741" y2="818.8207" gradientTransform="matrix(1 0 0 -1 0 1536)">
			<stop  offset="0" style="stop-color:#29ABE2"/>
			<stop  offset="0.229" style="stop-color:#28A8E0"/>
			<stop  offset="0.4116" style="stop-color:#249EDB"/>
			<stop  offset="0.5783" style="stop-color:#1E8DD3"/>
			<stop  offset="0.7354" style="stop-color:#1675C7"/>
			<stop  offset="0.8845" style="stop-color:#0B57B8"/>
			<stop  offset="1" style="stop-color:#003AAA"/>
		</linearGradient>
		<path class="st6" d="M1209.7,785.6c0,0-105.2-61.5-48.6-153.3c0,0,94.7-22.5,131.8,72l14.1,43.9c0,0-57.7,5.4-54.4,56.2
			L1209.7,785.6z"/>
		
			<linearGradient id="SVGID_8_" gradientUnits="userSpaceOnUse" x1="1316.4846" y1="697.2833" x2="1477.3599" y2="604.402" gradientTransform="matrix(1 0 0 -1 0 1536)">
			<stop  offset="0" style="stop-color:#29ABE2"/>
			<stop  offset="0.229" style="stop-color:#28A8E0"/>
			<stop  offset="0.4116" style="stop-color:#249EDB"/>
			<stop  offset="0.5783" style="stop-color:#1E8DD3"/>
			<stop  offset="0.7354" style="stop-color:#1675C7"/>
			<stop  offset="0.8845" style="stop-color:#0B57B8"/>
			<stop  offset="1" style="stop-color:#003AAA"/>
		</linearGradient>
		<path class="st7" d="M1404,810.2c0,0,108.2,56.2,56.5,150.6c0,0-93.4,27.2-135.4-65.4l-16.4-43.2c0,0,55.2-1.6,53.5-51.1
			L1404,810.2z"/>
		
			<radialGradient id="SVGID_9_" cx="4020.4556" cy="643.8888" r="87.0207" gradientTransform="matrix(-0.4767 -0.468 -0.429 0.4212 3500.2795 2411.2671)" gradientUnits="userSpaceOnUse">
			<stop  offset="0" style="stop-color:#FF00FF"/>
			<stop  offset="0.2002" style="stop-color:#FA00FB"/>
			<stop  offset="0.4402" style="stop-color:#EB00EF"/>
			<stop  offset="0.7005" style="stop-color:#D300DC"/>
			<stop  offset="0.9736" style="stop-color:#B200C2"/>
			<stop  offset="1" style="stop-color:#AE00BF"/>
		</radialGradient>
		<ellipse class="st8" cx="1307.5" cy="800.9" rx="58.7" ry="57.6"/>
		
			<linearGradient id="SVGID_10_" gradientUnits="userSpaceOnUse" x1="1249.2518" y1="137.7748" x2="1477.8501" y2="533.7186" gradientTransform="matrix(1 0 0 -1 0 1536)">
			<stop  offset="0" style="stop-color:#1B5500"/>
			<stop  offset="0.3487" style="stop-color:#158D00"/>
			<stop  offset="0.7914" style="stop-color:#0DCF00"/>
			<stop  offset="1" style="stop-color:#0AE900"/>
		</linearGradient>
		<path class="st9" d="M1345.9,926.1l-26.2,20.5c0,0,129.4,214.7,88.9,367.5c-40.4,152.8-40.4,152.8-40.4,152.8h31.7
			c0,0,24.9-67.1,50.6-170.9C1476,1192.3,1345.9,926.1,1345.9,926.1"/>
		
			<linearGradient id="SVGID_11_" gradientUnits="userSpaceOnUse" x1="1442.4399" y1="319.8411" x2="1584.479" y2="565.8599" gradientTransform="matrix(1 0 0 -1 0 1536)">
			<stop  offset="0" style="stop-color:#1B5500"/>
			<stop  offset="0.4288" style="stop-color:#149200"/>
			<stop  offset="1" style="stop-color:#0AE900"/>
		</linearGradient>
		<path class="st10" d="M1431.9,1150c0,0-1-135.3,165.5-172.4c0,0,18.9,184.3-149,242L1431.9,1150z"/>
		
			<linearGradient id="SVGID_12_" gradientUnits="userSpaceOnUse" x1="1191.5447" y1="372.8419" x2="1354.7162" y2="116.801" gradientTransform="matrix(1.0239 5.663569e-02 5.522783e-02 -0.9985 -26.3385 1432.0062)">
			<stop  offset="0" style="stop-color:#1B5500"/>
			<stop  offset="0.1262" style="stop-color:#1A5D00"/>
			<stop  offset="0.3166" style="stop-color:#187100"/>
			<stop  offset="0.5476" style="stop-color:#149300"/>
			<stop  offset="0.808" style="stop-color:#0EC200"/>
			<stop  offset="1" style="stop-color:#0AE900"/>
		</linearGradient>
		<path class="st11" d="M1413.7,1309.3c0,0-64.1-144.5-212.5-142.7c0,0-15.5,4.5-52.5-3.5c0,0,41.7,172.9,247.2,213.3L1413.7,1309.3
			z"/>
		<g>
			<g>
				<path d="M1444.5,1188.3c8.3-29.2,23.9-56.1,45.5-77.6c11-11,23.4-20.7,33.1-33c9.6-12.1,16.7-25.9,23.8-39.6
					c0.9-1.7-1.7-3.2-2.6-1.5c-7.5,14.5-15,29.1-25.5,41.7c-10.3,12.4-23.3,22.1-34.4,33.8c-20.1,21.2-34.8,47.2-42.7,75.3
					C1441.1,1189.4,1444,1190.2,1444.5,1188.3L1444.5,1188.3z"/>
			</g>
		</g>
		<g>
			<g>
				<path d="M1454,1133.2c0,4.4-0.5,9.1,0.1,13.4c0.3,1.9,0.9,3.7,2.8,4.5c3.2,1.3,8-1.2,11-1.9c4.8-1.2,9.5-2.5,14.3-3.7
					c1.9-0.5,1.1-3.4-0.8-2.9c-6,1.6-11.9,3.1-17.9,4.7c-0.9,0.2-2.7,1.1-3.6,0.9c-3.4-0.6-2.9-3.3-2.9-5.4c0-3.2,0-6.4,0-9.5
					C1457,1131.2,1454,1131.2,1454,1133.2L1454,1133.2z"/>
			</g>
		</g>
		<g>
			<g>
				<path d="M1481.4,1083.5c0.3,7.3,0.6,14.6,0.9,21.8c0.1,2.9-1.1,9.6,1.9,11.6c1,0.7,2,0.5,3,0.4c3.4-0.3,6.9-1.7,10.2-2.6
					c7-1.8,14.1-3.6,21.1-5.4c1.9-0.5,1.1-3.4-0.8-2.9c-5.1,1.3-10.2,2.6-15.4,4c-2.6,0.7-5.1,1.3-7.7,2c-1.4,0.4-6.5,2.5-7.7,2
					c-2.9-1.3-1.8-12-1.9-15c-0.2-5.3-0.4-10.6-0.6-15.9C1484.4,1081.6,1481.4,1081.6,1481.4,1083.5L1481.4,1083.5z"/>
			</g>
		</g>
		<g>
			<g>
				<path d="M1510.7,1047.8c0.5,11.6,1.5,23.2,3,34.7c0.1,0.9,1.5,1.4,2.2,0.9c9.5-6.6,19.8-11.3,31-14.1c1.9-0.5,1.1-3.4-0.8-2.9
					c-11.4,2.8-22.1,7.6-31.7,14.4c0.7,0.3,1.5,0.6,2.2,0.9c-1.5-11.2-2.5-22.5-2.9-33.9C1513.6,1045.9,1510.6,1045.8,1510.7,1047.8
					L1510.7,1047.8z"/>
			</g>
		</g>
		<g>
			<g>
				<path d="M1218.5,1211.5c12.3,25.1,30.7,47,53.3,63.4c24.6,17.9,53.4,26.8,81.8,36.9c16.9,6,33.5,12.7,48.6,22.4
					c1.6,1,3.1-1.5,1.5-2.6c-25.2-16.3-54.4-23.8-82.2-34.3c-27.7-10.4-52.8-25.3-73-47.2c-11.1-12-20.3-25.5-27.4-40.2
					C1220.3,1208.2,1217.7,1209.8,1218.5,1211.5L1218.5,1211.5z"/>
			</g>
		</g>
		<g>
			<g>
				<path d="M1208.8,1240c11.3-0.9,22.3,1.2,32.3,6.5c0.9,0.5,1.9,0.1,2.2-0.9c3.3-10.7,6-21.6,8.2-32.6c0.4-1.9-2.5-2.7-2.9-0.8
					c-2.2,11-5,21.9-8.2,32.6c0.7-0.3,1.5-0.6,2.2-0.9c-10.5-5.5-22-7.9-33.8-6.9C1206.9,1237.1,1206.9,1240.1,1208.8,1240
					L1208.8,1240z"/>
			</g>
		</g>
		<g>
			<g>
				<path d="M1237.1,1277.1c6.7-0.6,13.4-1.2,20.1-1.7c4.8-0.4,14.9-3.1,18.4,1.7c1,1.3,3.2,0.6,2.7-1.2c-3.4-13.3-4.4-26.8-3-40.4
					c0.2-1.9-2.8-1.9-3,0c-1.4,13.9-0.4,27.7,3.1,41.2c0.9-0.4,1.8-0.8,2.7-1.2c-3.2-4.4-8.3-4.3-13.3-3.9
					c-9.3,0.8-18.5,1.6-27.7,2.4C1235.2,1274.2,1235.2,1277.2,1237.1,1277.1L1237.1,1277.1z"/>
			</g>
		</g>
		<g>
			<g>
				<path d="M1291.9,1316.1c17.1-3.8,34.3-7.2,51.5-10.3c1.2-0.2,1.3-1.7,0.7-2.5c-9.8-11-17.7-23.4-23.6-36.9
					c-0.8-1.8-3.3-0.2-2.6,1.5c6,13.8,14.1,26.4,24.1,37.5c0.2-0.8,0.4-1.7,0.7-2.5c-17.2,3.1-34.4,6.5-51.5,10.3
					C1289.2,1313.6,1290,1316.5,1291.9,1316.1L1291.9,1316.1z"/>
			</g>
		</g>
		<g>
			<g>
				<path d="M1356.3,1334.2c8.8-4.1,17.9-7.3,27.4-9.7c1.3-0.3,1.5-2.1,0.4-2.7c-8.9-5.3-14.9-13.8-16.7-24
					c-0.3-1.9-3.2-1.1-2.9,0.8c1.9,11,8.5,20.2,18.1,25.8c0.1-0.9,0.2-1.8,0.4-2.7c-9.7,2.5-19,5.8-28.1,10.1
					C1353,1332.4,1354.5,1335,1356.3,1334.2L1356.3,1334.2z"/>
			</g>
		</g>
		<g>
			<g>
				<path d="M1228.1,717.7c15.1,10.5,31.7,22.3,36.8,40.9c0.5,1.9,3.4,1.1,2.9-0.8c-5.4-19.4-22.4-31.8-38.2-42.7
					C1228,714.1,1226.5,716.7,1228.1,717.7L1228.1,717.7z"/>
			</g>
		</g>
		<g>
			<g>
				<path d="M1254.2,717.4c5.3,12.6,23.4,18.6,24.2,33.1c0.1,1.8,2.8,1.8,2.7,0c-0.9-15.7-19-21.2-24.6-34.5
					C1255.8,714.4,1253.5,715.9,1254.2,717.4L1254.2,717.4z"/>
			</g>
		</g>
		<g>
			<g>
				<path d="M1227.3,741.4c13.5,5.9,23.5,17.5,27,31.9c0.4,1.9,3.3,1.1,2.9-0.8c-3.6-15.1-14.2-27.5-28.3-33.7
					C1227.1,738.1,1225.5,740.7,1227.3,741.4L1227.3,741.4z"/>
			</g>
		</g>
		<g>
			<g>
				<path d="M1391.4,719.1c-10.9,15.5-23.4,32.4-44.3,38.6c-2.1,0.6-1.1,3.4,0.9,2.9c21.9-6.6,34.9-23.8,46.4-40
					C1395.5,719,1392.5,717.5,1391.4,719.1L1391.4,719.1z"/>
			</g>
		</g>
		<g>
			<g>
				<path d="M1394,744.7c-13.2,6.8-18.5,27.1-34.1,29.1c-1.9,0.3-1.9,3.3,0,3c17-2.3,21.5-22.4,35.6-29.6
					C1397.3,746.4,1395.8,743.8,1394,744.7L1394,744.7z"/>
			</g>
		</g>
		<g>
			<g>
				<path d="M1367.6,720.6c-5,13.8-16.2,24.2-30.1,28.6c-1.8,0.6-1.1,3.5,0.8,2.9c15-4.7,26.9-15.9,32.2-30.7
					C1371.1,719.6,1368.2,718.8,1367.6,720.6L1367.6,720.6z"/>
			</g>
		</g>
		<g>
			<g>
				<path d="M1401.2,867.7c-17.7-5.2-37.3-11.3-48.2-27.3c-1.1-1.6-3.7-0.1-2.6,1.5c11.4,16.8,31.4,23.2,50,28.7
					C1402.2,871.1,1403,868.2,1401.2,867.7L1401.2,867.7z"/>
			</g>
		</g>
		<g>
			<g>
				<path d="M1376.4,876c-5-5.5-11.8-8.4-18.5-11.3c-7.2-3.1-15.3-6.4-18.5-14.1c-0.7-1.8-3.6-1-2.9,0.8c6.4,15.8,27.3,15,37.8,26.8
					C1375.6,879.5,1377.7,877.4,1376.4,876L1376.4,876z"/>
			</g>
		</g>
		<g>
			<g>
				<path d="M1393.9,845.2c-13.5-1.2-25.6-8.4-32.8-19.4c-0.9-1.4-3.3-0.1-2.4,1.3c7.8,11.9,20.7,19.4,35.2,20.7
					C1395.8,848.1,1395.8,845.4,1393.9,845.2L1393.9,845.2z"/>
			</g>
		</g>
		<g>
			<g>
				<path d="M1223.3,882.2c16.9-9.3,35-19.8,42.5-38.6c0.7-1.8-2.2-2.6-2.9-0.8c-7.1,18-25,28-41.1,36.8
					C1220.1,880.5,1221.6,883.1,1223.3,882.2L1223.3,882.2z"/>
			</g>
		</g>
		<g>
			<g>
				<path d="M1250.4,884c7.6-12.7,28.2-16.3,31-31.9c0.3-1.8-2.6-2.6-2.9-0.8c-2.6,14.9-23.3,18.9-30.7,31.3
					C1246.9,884.1,1249.5,885.6,1250.4,884L1250.4,884z"/>
			</g>
		</g>
		<g>
			<g>
				<path d="M1224.7,858.7c14.9-4.7,26.8-16,32.1-30.8c0.6-1.8-2.2-2.6-2.9-0.8c-4.9,13.8-16.1,24.3-30,28.7
					C1222.1,856.4,1222.9,859.3,1224.7,858.7L1224.7,858.7z"/>
			</g>
		</g>
		<g>
			<g>
				<path d="M1305.3,701.8c-0.5,12.4-0.2,24.7,0.9,37.1c0.2,1.9,2.6,1.9,2.4,0c-1.1-12.3-1.4-24.7-0.9-37.1
					C1307.8,699.9,1305.4,699.9,1305.3,701.8L1305.3,701.8z"/>
			</g>
		</g>
		<g>
			<g>
				<path d="M1190,801.9c18.4,0.9,36.8,1.8,55.2,2.6c1.9,0.1,1.9-2.1,0-2.1c-18.4-0.9-36.8-1.8-55.2-2.6
					C1188,799.7,1188,801.9,1190,801.9L1190,801.9z"/>
			</g>
		</g>
		<g>
			<g>
				<path d="M1369.9,801.9c18.4,0.9,36.8,1.8,55.2,2.6c1.9,0.1,1.9-2.1,0-2.1c-18.4-0.9-36.8-1.8-55.2-2.6
					C1367.9,799.7,1367.9,801.9,1369.9,801.9L1369.9,801.9z"/>
			</g>
		</g>
		<g>
			<g>
				<path d="M1312.3,912.2c-0.8-18-1.6-35.9-2.4-53.9c-0.1-1.9-2.2-1.7-2.1,0.2c0.8,18,1.6,35.9,2.4,53.9
					C1310.3,914.4,1312.4,914.2,1312.3,912.2L1312.3,912.2z"/>
			</g>
		</g>
	</g>
</g>
    
<g class="bumblebee">
	<g id="_x3C_bee_x3E__1_">
		<g id="_x3C_bee_x3E_">
			
				<ellipse transform="matrix(0.9883 -0.1525 0.1525 0.9883 -82.8404 75.7632)" class="st12" cx="452.5" cy="577.9" rx="88" ry="49.5"/>
			
				<ellipse transform="matrix(0.9989 -4.733333e-02 4.733333e-02 0.9989 -24.2559 25.903)" class="st12" cx="534.8" cy="525.1" rx="35.1" ry="41.1"/>
			<polygon class="st13" points="365.3,590.6 366,596.5 356.6,594.7 347.2,593 356,588.8 364.7,584.6 			"/>
			<path class="st13" d="M479.4,527.6c0,0-1.9,58.5,48.4,67.6l10.9-18.7c0,0-43.8-18.9-38.7-46.4L479.4,527.6z"/>
			<path class="st13" d="M429.4,531.1c0,0-10.9,66.4,45.2,92.7l28.2-10.5c0,0-59.3-33-49.9-85.6L429.4,531.1z"/>
			<path class="st13" d="M389.7,549.8c0,0-5.8,46.3,24.6,77l23.2,1.9c0,0-39.1-46.6-30.8-88.5L389.7,549.8z"/>
			<g>
				<g>
					<path d="M542.8,497c-0.6-11.3,3.7-22.9,13.3-29.3c1.6-1.1,0.1-3.7-1.5-2.6c-10.5,7-15.4,19.6-14.8,31.9
						C539.9,498.9,542.9,498.9,542.8,497L542.8,497z"/>
				</g>
			</g>
			
				<ellipse transform="matrix(0.9989 -4.733401e-02 4.733401e-02 0.9989 -23.9917 25.8687)" class="st13" cx="534.2" cy="519.5" rx="6.2" ry="7.3"/>
			
				<ellipse transform="matrix(0.9989 -4.733401e-02 4.733401e-02 0.9989 -23.984 25.9916)" class="st14" cx="536.8" cy="519.4" rx="3" ry="3.5"/>
			<g>
				<g>
					<path d="M520.5,497.4c-2.9-11.9-0.6-25,7.4-34.5c1.2-1.5-0.9-3.6-2.1-2.1c-8.7,10.4-11.3,24.4-8.2,37.5
						C518,500,520.9,499.3,520.5,497.4L520.5,497.4z"/>
				</g>
			</g>
			
				<ellipse transform="matrix(0.9989 -4.733401e-02 4.733401e-02 0.9989 -21.2542 25.4675)" class="st15" cx="527.1" cy="461.5" rx="4.1" ry="4.8"/>
			
				<ellipse transform="matrix(0.9989 -4.733401e-02 4.733401e-02 0.9989 -21.4545 26.8125)" class="st15" cx="555.4" cy="466.4" rx="4.1" ry="4.8"/>
			
				<ellipse transform="matrix(0.9989 -4.733401e-02 4.733401e-02 0.9989 -23.8095 26.9632)" class="st13" cx="557.4" cy="516.2" rx="6.2" ry="7.3"/>
			
				<ellipse transform="matrix(0.9989 -4.733401e-02 4.733401e-02 0.9989 -23.8019 27.0861)" class="st14" cx="560" cy="516.1" rx="3" ry="3.5"/>
			
				<linearGradient id="SVGID_13_" gradientUnits="userSpaceOnUse" x1="576.0875" y1="355.3021" x2="619.4397" y2="398.6543" gradientTransform="matrix(0.9959 -9.049585e-02 -9.049585e-02 -0.9959 -124.8252 917.4106)">
				<stop  offset="0" style="stop-color:#AAEAFF;stop-opacity:0.6"/>
				<stop  offset="0.2328" style="stop-color:#B9EEFF;stop-opacity:0.6931"/>
				<stop  offset="0.6764" style="stop-color:#DFF7FF;stop-opacity:0.8706"/>
				<stop  offset="1" style="stop-color:#FFFFFF"/>
			</linearGradient>
			<path class="st16" d="M465.7,536.2c-10.7,8.8-32.5-5.8-48.6-32.5c-16.2-26.7-20.7-55.4-10-64.2c10.7-8.8,32.5,5.8,48.6,32.5
				C471.9,498.7,476.4,527.4,465.7,536.2z"/>
			
				<linearGradient id="SVGID_14_" gradientUnits="userSpaceOnUse" x1="572.8362" y1="393.1833" x2="610.1479" y2="430.4951" gradientTransform="matrix(0.9918 -0.1279 -0.1279 -0.9918 -105.8227 984.5206)">
				<stop  offset="0" style="stop-color:#AAEAFF;stop-opacity:0.6"/>
				<stop  offset="0.2328" style="stop-color:#B9EEFF;stop-opacity:0.6931"/>
				<stop  offset="0.6764" style="stop-color:#DFF7FF;stop-opacity:0.8706"/>
				<stop  offset="1" style="stop-color:#FFFFFF"/>
			</linearGradient>
			<path class="st17" d="M472.1,529.8c-6.4,13.3-31.3,10.9-55.5-5.3c-24.3-16.2-38.8-40.2-32.4-53.5s31.3-10.9,55.5,5.3
				C464,492.6,478.5,516.5,472.1,529.8z"/>
			<g>
				<g>
					<path d="M531,545.8c5.1,4.4,11.7,8.3,18.7,6.9c7.3-1.5,11.2-8.3,13.2-14.9c0.6-1.8-2.3-2.6-2.9-0.8
						c-1.7,5.5-4.9,11.6-11.2,12.8c-5.9,1.1-11.5-2.4-15.8-6.1C531.6,542.4,529.5,544.5,531,545.8L531,545.8z"/>
				</g>
			</g>
			<g>
				<g>
					<path d="M427,629.5c3.7,8.6,2.8,19.1-3.3,26.4c-1.2,1.5,0.9,3.6,2.1,2.1c6.9-8.4,8-20.1,3.7-30
						C428.8,626.2,426.3,627.7,427,629.5L427,629.5z"/>
				</g>
			</g>
			<g>
				<g>
					<path d="M450.1,629.9c3.8,7,4.9,14.8,3.5,22.6c-0.4,1.9,2.5,2.7,2.9,0.8c1.6-8.6,0.4-17.2-3.8-24.9
						C451.8,626.6,449.2,628.2,450.1,629.9L450.1,629.9z"/>
				</g>
			</g>
			<g>
				<g>
					<path d="M499.9,617.8c4.5,6.6,4.8,15.3,0.6,22.2c-1,1.7,1.6,3.2,2.6,1.5c4.7-7.7,4.4-17.8-0.6-25.2
						C501.4,614.7,498.8,616.2,499.9,617.8L499.9,617.8z"/>
				</g>
			</g>
			<g>
				<g>
					<path d="M513.7,606.1c7.3,7.3,10.1,17.9,8.1,27.9c-0.4,1.9,2.5,2.7,2.9,0.8c2.1-11.1-0.8-22.8-8.9-30.9
						C514.5,602.6,512.3,604.7,513.7,606.1L513.7,606.1z"/>
				</g>
			</g>
			<g>
				<g>
					<path d="M423.2,656.2c0.4,2.4,1.5,4.6,3.2,6.3c1.3,1.4,3.5-0.7,2.1-2.1c-1.4-1.4-2.1-3.1-2.5-5
						C425.8,653.5,422.9,654.3,423.2,656.2L423.2,656.2z"/>
				</g>
			</g>
			<g>
				<g>
					<path d="M455.4,655.3c1.1,0.3,2.1,0.5,3.2,0.8c1.9,0.5,2.7-2.4,0.8-2.9c-1.1-0.3-2.1-0.5-3.2-0.8
						C454.3,652,453.5,654.9,455.4,655.3L455.4,655.3z"/>
				</g>
			</g>
			<g>
				<g>
					<path d="M502.2,642c0.8,0.7,1.6,1.4,2.3,2.1c0.6,0.5,1.5,0.6,2.1,0s0.6-1.6,0-2.1c-0.8-0.7-1.6-1.4-2.3-2.1
						c-0.6-0.5-1.5-0.6-2.1,0S501.6,641.5,502.2,642L502.2,642z"/>
				</g>
			</g>
			<g>
				<g>
					<path d="M523,637.1c1.5,0.6,2.9,1.2,4.4,1.8c0.7,0.3,1.6-0.3,1.8-1c0.2-0.9-0.3-1.5-1-1.8c-1.5-0.6-2.9-1.2-4.4-1.8
						c-0.7-0.3-1.6,0.3-1.8,1C521.7,636.2,522.3,636.8,523,637.1L523,637.1z"/>
				</g>
			</g>
		</g>
	</g>
</g>
</svg>
